<?xml version="1.0" standalone="no"?>
<!DOCTYPE svg PUBLIC "-//W3C//DTD SVG 20010904//EN"
 "http://www.w3.org/TR/2001/REC-SVG-20010904/DTD/svg10.dtd">
<svg version="1.0" xmlns="http://www.w3.org/2000/svg"
 width="512.000000pt" height="512.000000pt" viewBox="0 0 512.000000 512.000000"
 preserveAspectRatio="xMidYMid meet">
<metadata>
Created by potrace 1.16, written by Peter Selinger 2001-2019
</metadata>
<g transform="translate(0.000000,512.000000) scale(0.100000,-0.100000)"
fill="#000000" stroke="none">
<path d="M1547 5095 c-15 -14 -26 -25 -23 -25 11 0 -69 -76 -87 -83 -9 -4 -20
-20 -23 -36 -4 -17 -17 -37 -30 -46 -19 -12 -24 -24 -24 -56 0 -26 -5 -42 -15
-45 -10 -4 -13 -13 -10 -25 4 -11 2 -19 -4 -19 -6 0 -11 -9 -11 -21 0 -15 4
-19 16 -15 13 5 15 -6 13 -82 -3 -128 1 -163 22 -206 10 -22 19 -46 19 -53 0
-8 16 -35 35 -60 19 -25 35 -51 35 -57 0 -6 20 -24 45 -40 25 -15 43 -31 40
-34 -3 -3 -51 -6 -108 -7 -56 -1 -114 -5 -129 -9 -23 -7 -32 -2 -70 37 -66 69
-200 134 -290 140 -9 1 -14 5 -12 9 3 4 -2 8 -10 8 -9 0 -16 -3 -16 -7 0 -5
-28 -9 -63 -9 -71 -2 -187 -31 -187 -48 0 -6 -5 -3 -11 7 -12 21 -42 22 -63 2
-8 -8 -21 -15 -28 -15 -19 0 -146 -126 -154 -153 -3 -12 -12 -29 -19 -37 -24
-28 -55 -91 -55 -111 0 -22 -26 -77 -44 -94 -6 -5 -31 -21 -56 -34 -62 -33
-80 -50 -80 -78 0 -29 18 -30 86 -4 47 18 94 19 94 1 0 -4 18 -6 40 -4 37 2
55 -9 28 -18 -6 -2 -8 -10 -4 -16 10 -17 19 -15 34 9 11 18 11 24 -5 41 -10
11 -28 24 -40 29 -20 7 -22 14 -19 66 3 57 4 58 33 61 27 3 80 42 57 42 -5 0
6 9 24 20 19 12 38 34 44 52 10 28 12 30 19 12 6 -16 8 -16 8 -2 1 9 -3 20 -9
23 -5 3 -10 11 -10 16 0 6 4 8 9 5 4 -3 16 3 26 14 10 11 24 20 31 20 7 0 14
4 16 9 2 5 10 11 18 13 16 3 39 35 40 55 0 7 -7 10 -15 7 -15 -6 -21 11 -7 20
14 8 30 -8 33 -33 5 -30 29 -41 29 -13 0 11 -6 23 -12 25 -7 3 -1 6 13 6 36 1
40 -6 21 -46 -14 -30 -14 -35 -2 -44 12 -8 11 -9 -5 -5 -11 3 -36 1 -55 -3
l-35 -9 35 -2 c19 -1 28 -4 20 -7 -8 -2 -22 -7 -30 -10 -12 -4 -12 -7 4 -19
15 -10 16 -14 5 -15 -8 -1 -3 -4 11 -8 30 -9 29 -35 -5 -71 -40 -44 -61 -83
-47 -88 7 -2 10 -7 7 -12 -3 -4 6 -31 20 -58 30 -60 30 -64 5 -87 -27 -24 -27
-84 0 -118 11 -14 20 -30 20 -36 0 -6 4 -11 10 -11 5 0 7 -6 4 -14 -3 -8 -1
-17 5 -20 6 -4 8 -13 4 -21 -3 -8 0 -15 6 -15 6 0 11 -13 11 -30 0 -26 5 -30
42 -41 24 -6 50 -14 58 -17 8 -3 21 -6 28 -8 23 -4 27 -15 12 -24 -13 -8 -13
-10 -1 -10 8 0 11 -3 8 -6 -4 -4 -13 -2 -20 4 -8 7 -16 10 -18 8 -8 -8 -143
-9 -169 -2 -19 6 -21 5 -10 -3 13 -9 13 -12 1 -23 -10 -10 -12 -10 -7 0 5 8
-1 12 -18 12 -31 0 -33 -10 -8 -30 36 -29 61 -39 109 -45 26 -4 56 -9 65 -11
14 -4 16 -1 11 13 -6 15 -4 16 8 6 20 -16 83 -10 104 11 20 20 32 21 15 1 -11
-14 -6 -55 8 -55 20 0 106 37 109 47 4 12 -23 7 -67 -11 -11 -5 -16 0 -16 14
0 18 5 20 29 14 21 -4 27 -3 22 6 -4 7 -1 10 11 8 15 -2 18 2 16 20 -2 14 2
22 12 22 24 0 29 19 7 28 -19 7 -19 8 5 19 21 10 36 1 17 -10 -5 -2 -1 -2 7 1
41 13 73 14 65 3 -4 -7 -14 -10 -22 -7 -8 3 -11 1 -8 -5 4 -5 15 -7 26 -4 11
4 19 2 19 -5 0 -7 8 -9 22 -4 19 6 18 3 -7 -19 l-30 -25 -17 21 c-20 22 -24
16 -8 -12 7 -14 2 -25 -25 -51 -18 -18 -47 -34 -63 -36 -47 -5 -85 -23 -79
-38 4 -10 -10 -13 -56 -15 -34 -1 -74 -8 -90 -16 -15 -7 -25 -9 -22 -4 4 5 0
9 -8 9 -8 0 -18 7 -21 16 -4 10 -13 13 -24 10 -10 -4 -40 3 -66 15 -52 22
-110 20 -119 -5 -3 -8 -15 -12 -31 -9 -25 5 -25 5 -5 26 30 32 23 54 -31 94
-27 20 -50 40 -50 44 0 12 -61 39 -86 39 -13 0 -25 -4 -28 -9 -3 -5 -15 -7
-26 -4 -11 3 -17 9 -15 14 3 4 -8 6 -25 4 -22 -2 -36 3 -50 18 -11 11 -20 18
-20 14 0 -4 -14 -1 -30 8 -23 12 -35 13 -51 5 -11 -6 -28 -10 -37 -8 -23 5
-42 -34 -37 -74 3 -21 1 -28 -4 -19 -6 9 -11 10 -15 2 -4 -6 -4 -15 -1 -21 3
-5 1 -10 -4 -10 -8 0 -11 -77 -11 -237 0 -228 1 -236 18 -220 20 18 72 23 72
7 0 -6 -5 -9 -11 -8 -16 4 -21 -35 -6 -44 7 -5 1 -8 -15 -8 -27 0 -47 -15 -28
-22 12 -4 -9 -68 -22 -68 -4 0 -8 -74 -8 -165 0 -91 4 -165 9 -165 5 0 12 -11
15 -25 4 -15 11 -23 17 -19 6 3 10 -2 8 -12 -4 -36 21 -82 48 -89 14 -3 28 -4
30 -1 9 8 -7 26 -23 26 -13 0 -12 3 2 18 17 16 17 17 -4 20 -16 2 -22 10 -22
28 0 13 -4 24 -10 24 -24 0 -50 123 -28 136 7 4 8 3 4 -4 -12 -19 12 -49 51
-65 21 -8 50 -29 66 -46 19 -22 36 -31 58 -31 17 0 39 -5 50 -11 19 -10 20
-12 4 -29 -49 -54 50 -86 127 -40 49 29 98 19 98 -20 0 -16 -6 -30 -12 -33
-10 -3 -8 -17 6 -60 23 -68 16 -85 -10 -28 -23 48 -40 52 -49 11 -4 -16 -11
-30 -17 -30 -10 0 -38 -25 -38 -33 0 -3 28 -3 62 -1 38 2 65 -1 69 -7 4 -7 18
-1 38 17 32 29 41 50 17 41 -8 -3 -17 -1 -20 6 -2 7 -5 4 -5 -7 -1 -15 -4 -16
-16 -6 -14 11 -12 15 15 31 21 13 30 27 30 44 0 16 7 28 18 31 9 3 27 10 39
16 11 6 27 8 35 5 9 -4 6 -8 -8 -12 -12 -4 -31 -24 -42 -44 -35 -61 -11 -67
84 -20 35 18 64 36 64 42 0 5 9 7 19 4 12 -3 18 0 17 7 -2 6 -1 8 1 3 3 -4 8
-5 12 -3 4 3 5 -9 3 -25 -3 -21 -9 -29 -18 -25 -12 4 -12 1 -4 -14 9 -16 8
-18 -5 -14 -8 4 -15 10 -15 15 0 5 -5 9 -10 9 -6 0 -3 -11 6 -25 10 -15 12
-25 5 -25 -6 0 -10 -3 -9 -7 0 -5 -2 -16 -7 -26 -12 -28 5 -34 25 -10 10 13
30 27 44 33 23 8 26 7 32 -16 6 -25 -30 -93 -51 -94 -5 0 -28 -9 -50 -20 -22
-11 -56 -20 -75 -20 -36 0 -81 -19 -50 -20 9 -1 5 -5 -8 -10 -13 -6 -32 -6
-47 0 -14 5 -25 7 -25 4 0 -2 -9 0 -19 6 -15 8 -29 6 -55 -7 -19 -9 -33 -20
-30 -24 2 -4 0 -10 -6 -14 -6 -4 -7 -11 -4 -17 4 -6 0 -14 -7 -19 -12 -7 -11
-9 1 -9 27 -1 -54 -32 -83 -32 -17 1 -25 -3 -21 -10 4 -6 3 -8 -3 -5 -5 3 -8
20 -5 37 3 23 0 30 -12 30 -9 0 -15 -3 -15 -7 3 -20 -2 -59 -10 -71 -4 -7 -18
-14 -29 -15 -12 -1 -22 -5 -22 -9 0 -4 -8 -8 -19 -8 -13 0 -20 9 -23 29 -3 21
-1 28 9 24 7 -3 13 0 13 6 0 6 6 11 14 11 7 0 16 11 19 25 4 23 3 24 -12 11
-22 -20 -54 -14 -66 12 -11 26 -23 28 -32 6 -3 -8 3 -25 15 -37 14 -16 20 -35
19 -64 0 -24 -5 -43 -11 -43 -5 0 -7 -3 -3 -6 3 -3 -7 -17 -24 -31 -34 -29
-39 -58 -10 -50 15 3 18 1 14 -11 -4 -10 -2 -13 5 -8 7 4 12 2 12 -4 0 -7 14
-3 34 9 34 22 61 28 52 12 -3 -5 1 -14 9 -21 10 -9 15 -9 15 -1 0 6 -4 11 -10
11 -5 0 -7 7 -4 15 8 20 48 19 65 -1 11 -14 10 -18 -6 -30 -10 -8 -26 -14 -35
-14 -10 0 -16 -8 -15 -20 2 -24 3 -26 38 -34 20 -5 27 -3 27 9 0 14 12 20 34
16 5 -1 21 12 36 29 18 21 36 30 56 30 25 -1 27 -2 13 -13 -18 -14 -43 -82
-41 -112 1 -11 8 -25 17 -31 15 -11 15 -14 0 -38 -14 -20 -14 -26 -4 -26 8 0
1 -11 -15 -23 -25 -20 -38 -23 -94 -19 -44 2 -62 0 -57 -7 3 -6 2 -11 -4 -11
-6 0 -7 -7 -4 -17 5 -11 3 -14 -6 -8 -10 6 -11 3 -2 -12 7 -14 7 -24 -2 -33
-10 -10 -9 -11 3 -5 13 8 13 7 1 -8 -12 -15 -11 -17 10 -18 22 0 22 -1 4 -8
-13 -5 -19 -18 -20 -37 0 -29 14 -55 26 -48 4 2 9 -3 13 -11 3 -8 1 -15 -4
-15 -6 0 -10 -8 -10 -17 1 -17 1 -17 11 0 15 25 24 21 44 -17 11 -19 22 -33
26 -30 4 2 14 -5 22 -17 11 -15 21 -19 36 -14 24 7 29 25 7 25 -7 0 -16 10
-19 22 -7 24 -1 38 14 38 6 0 8 -4 4 -9 -3 -5 -1 -12 5 -16 5 -3 10 -1 10 4 0
6 9 2 20 -9 11 -11 20 -32 20 -48 0 -21 -2 -24 -10 -12 -8 13 -10 13 -10 -1 0
-9 8 -23 17 -30 11 -10 14 -10 9 -1 -4 6 -2 12 3 12 6 0 11 -5 11 -11 0 -8 6
-7 16 2 15 12 16 11 10 -8 -4 -13 -1 -26 8 -36 8 -8 13 -17 10 -19 -2 -3 0
-17 5 -30 9 -24 29 -33 89 -40 6 -1 12 -5 12 -10 0 -4 9 -8 20 -8 11 0 20 5
20 11 0 5 -4 7 -10 4 -5 -3 -23 7 -40 23 -30 29 -30 30 -15 71 8 23 10 39 5
36 -5 -3 -14 4 -20 15 -13 23 -44 23 -46 0 -1 -8 -2 -19 -3 -24 0 -5 -10 3
-22 18 -14 17 -18 33 -14 47 5 16 4 19 -5 14 -9 -6 -10 1 -5 24 4 20 3 31 -4
31 -6 0 -10 3 -10 8 5 27 -4 54 -26 80 -31 37 -31 52 -4 81 20 22 23 22 32 6
6 -12 6 -30 -1 -54 -7 -19 -8 -39 -4 -42 12 -12 66 -13 87 -2 26 13 45 6 45
-17 0 -31 11 -49 26 -43 8 3 14 0 14 -6 0 -6 -4 -11 -10 -11 -5 0 -10 -9 -10
-20 0 -20 0 -20 20 0 11 11 20 25 20 30 0 14 9 12 26 -4 18 -19 18 -30 -1 -22
-8 3 -15 1 -15 -4 0 -6 5 -10 11 -10 14 0 31 -18 48 -52 8 -15 27 -33 43 -41
28 -14 78 -12 78 2 0 10 11 12 120 15 52 1 110 6 128 10 31 7 32 6 32 -23 0
-25 -4 -31 -20 -31 -13 0 -28 -12 -38 -29 -15 -28 -54 -46 -68 -32 -3 3 -11 6
-17 6 -7 0 -12 11 -13 25 -2 61 -5 62 -52 21 l-34 -28 41 -7 c22 -3 42 -9 44
-14 2 -4 1 -29 -2 -57 -8 -68 -31 -67 -46 3 -7 29 -14 55 -17 58 -11 11 -38
-10 -38 -30 0 -11 -4 -16 -8 -11 -13 19 -57 16 -79 -5 -29 -27 -41 -26 -17 2
10 12 13 18 6 14 -6 -4 -12 -2 -12 3 0 6 -11 11 -25 11 -14 0 -25 -6 -25 -12
0 -8 -3 -9 -8 -3 -4 6 -19 18 -34 28 -25 16 -27 16 -21 0 5 -13 2 -15 -15 -11
-12 4 -22 2 -22 -2 0 -5 16 -12 35 -16 41 -7 50 -19 46 -56 -1 -16 2 -28 9
-28 6 0 8 4 5 10 -9 15 2 12 19 -6 13 -13 16 -13 16 -1 0 8 -7 20 -15 27 -16
13 -11 30 8 30 8 0 8 -3 -1 -9 -11 -7 -10 -10 3 -15 25 -9 63 4 68 22 3 15 5
14 12 -2 5 -11 22 -32 39 -47 17 -16 25 -29 18 -29 -8 0 -10 -5 -6 -12 6 -9 3
-9 -9 0 -14 12 -19 12 -32 -2 -19 -19 -10 -40 14 -30 26 11 175 13 188 2 9 -7
14 -6 19 5 3 9 13 13 24 10 11 -3 32 -2 47 2 l28 8 -25 6 c-22 6 -20 9 30 33
30 15 47 27 38 27 -24 1 -23 10 4 32 11 11 16 19 10 19 -6 0 9 19 33 43 25 23
45 47 45 52 0 6 -5 3 -11 -5 -9 -13 -10 -13 -6 0 3 13 34 16 46 5 5 -6 -26
-35 -38 -35 -6 0 -11 -4 -11 -10 0 -5 6 -8 13 -7 6 2 2 -1 -10 -7 -25 -11 -45
-49 -37 -71 8 -19 24 -19 24 0 0 8 7 15 15 15 20 0 48 62 33 71 -7 4 -3 12 10
20 12 7 18 19 14 28 -3 9 -2 13 3 9 11 -10 55 42 55 65 0 9 4 17 8 17 7 0 29
60 47 128 7 24 20 29 31 10 5 -7 3 -8 -6 -3 -10 6 -11 2 -5 -21 5 -16 9 -40
10 -54 1 -14 5 -33 9 -42 4 -9 3 -32 -2 -50 -6 -18 -10 -46 -10 -61 1 -35 -7
-43 -27 -27 -13 11 -19 10 -35 -8 -11 -11 -29 -38 -40 -60 -29 -55 -77 -95
-71 -60 0 4 -5 5 -12 2 -18 -7 -54 -66 -68 -113 -7 -22 -17 -41 -24 -41 -14 0
-35 -43 -35 -73 0 -12 -5 -29 -11 -37 -8 -12 -9 -10 -4 7 4 16 -2 30 -23 52
-16 17 -31 28 -34 25 -4 -3 -15 0 -25 6 -15 10 -26 9 -55 -3 -20 -8 -36 -21
-35 -29 2 -60 -18 -76 -50 -38 -28 33 -70 25 -64 -12 0 -4 -6 -5 -13 -2 -9 3
-17 -3 -21 -15 -3 -12 -10 -19 -15 -16 -8 5 -34 -30 -35 -47 0 -3 -4 -10 -9
-15 -5 -5 -6 -3 -2 5 4 7 1 12 -7 12 -8 0 -20 7 -27 15 -7 8 -16 12 -21 9 -5
-3 -10 1 -10 8 -1 13 -1 19 8 53 15 63 16 68 3 63 -8 -2 -18 -18 -24 -35 -6
-18 -15 -35 -19 -39 -4 -5 -5 0 -1 11 6 14 4 17 -7 13 -9 -4 -21 2 -28 14 -7
12 -18 17 -28 14 -13 -5 -14 -4 -3 9 7 8 17 12 23 8 5 -3 7 -1 4 4 -4 6 -18 8
-32 5 -20 -3 -25 0 -25 16 0 11 -8 26 -17 33 -14 12 -16 12 -8 0 5 -10 4 -12
-3 -7 -7 4 -12 13 -12 20 0 6 -16 27 -35 46 -24 24 -34 40 -30 54 3 12 2 15
-1 9 -8 -17 -27 -17 -21 0 6 17 -29 58 -63 74 -14 6 -19 12 -12 12 6 1 12 6
12 12 0 6 -6 9 -14 6 -8 -3 -20 1 -26 9 -10 11 -10 14 -1 14 7 0 9 5 6 11 -4
6 -14 8 -22 5 -8 -3 -11 -1 -8 4 3 5 -5 21 -18 34 -16 16 -21 28 -15 34 6 6 5
12 -3 17 -8 6 -10 4 -4 -5 5 -9 4 -11 -3 -6 -7 4 -12 17 -13 29 0 12 -3 16 -6
9 -3 -9 -10 -4 -19 14 -11 20 -11 30 -3 40 8 10 6 12 -10 9 -16 -3 -21 1 -19
13 2 10 -3 16 -11 14 -8 -2 -11 3 -8 12 4 9 1 15 -6 13 -7 -1 -11 4 -10 11 2
6 -1 12 -6 12 -10 0 -22 40 -26 88 l-3 33 32 -21 c18 -11 36 -17 39 -13 4 3 7
27 7 53 0 35 -5 52 -20 65 -20 19 -21 18 -58 -19 -20 -21 -32 -36 -26 -33 6 4
10 -2 9 -13 -2 -25 -15 -39 -15 -16 0 9 -4 15 -9 12 -5 -3 -12 1 -15 10 -3 8
-2 13 3 10 5 -3 1 10 -7 29 -9 19 -20 31 -25 28 -5 -3 -6 4 -2 16 4 14 2 23
-8 26 -8 4 -13 18 -12 35 2 26 0 28 -14 17 -8 -6 -12 -7 -9 -2 4 6 3 17 -3 25
-7 12 -9 11 -9 -6 0 -27 64 -176 133 -307 30 -58 52 -109 49 -114 -4 -4 -3 -5
2 -1 11 9 78 -100 70 -113 -3 -5 0 -8 6 -7 7 2 17 -6 23 -16 7 -11 33 -48 59
-84 26 -35 45 -68 42 -73 -3 -5 -1 -8 4 -7 6 2 43 -35 82 -82 40 -47 99 -113
131 -148 39 -42 56 -69 53 -80 -4 -13 -3 -14 4 -4 14 20 84 -51 75 -75 -6 -15
-4 -16 8 -6 11 9 27 1 79 -44 67 -57 80 -73 61 -73 -6 0 -11 -5 -11 -11 0 -8
4 -8 14 0 17 14 60 -4 89 -38 15 -19 15 -22 2 -27 -22 -9 -18 -23 5 -17 11 3
20 10 20 15 0 5 5 6 11 2 8 -4 7 -9 -2 -16 -10 -6 -7 -8 11 -6 23 3 36 -12 53
-57 3 -5 8 -7 12 -3 4 4 2 14 -5 23 -11 13 -10 14 4 9 15 -6 20 -18 17 -38 -1
-4 3 -14 9 -21 8 -10 6 -15 -9 -20 -12 -3 -21 -13 -21 -22 0 -10 9 -6 30 13
19 19 26 32 20 39 -7 8 -5 12 5 12 8 0 12 -4 9 -9 -4 -5 2 -8 12 -6 11 2 20
-4 22 -15 2 -11 -3 -17 -13 -17 -15 0 -16 2 -4 17 13 15 12 15 -8 4 -18 -9
-21 -16 -14 -34 11 -30 49 -49 71 -35 12 8 25 6 47 -6 18 -9 38 -13 46 -10 26
9 26 -11 1 -23 -20 -9 -24 -8 -24 4 0 10 -8 13 -27 10 -16 -2 -22 -2 -15 0 15
5 6 23 -12 23 -8 0 -16 -9 -19 -20 -3 -11 -17 -22 -33 -25 -49 -11 -54 -14
-54 -30 0 -8 8 -15 18 -15 10 0 22 -3 25 -7 4 -4 25 -8 46 -10 35 -3 40 -1 44
19 l4 23 2 -22 c1 -22 4 -23 105 -22 89 1 106 4 109 18 4 12 5 11 6 -4 1 -17
3 -18 11 -5 6 10 10 11 10 3 0 -10 194 -13 920 -13 522 0 919 4 916 9 -3 5 1
11 9 15 8 3 17 0 21 -6 4 -7 3 -8 -4 -4 -7 4 -12 3 -12 -2 0 -4 32 -9 72 -10
52 -2 78 2 96 14 20 13 24 13 20 2 -4 -9 1 -14 13 -15 10 -1 16 3 13 11 -3 7
4 23 16 36 24 27 26 44 5 36 -30 -11 -13 10 21 27 28 14 39 15 50 6 11 -9 13
-9 10 2 -6 16 19 48 53 67 20 11 25 12 32 1 5 -8 3 -17 -4 -21 -21 -14 -30 -8
-16 9 13 16 12 17 -3 4 -25 -19 -13 -31 30 -32 21 -1 29 -3 17 -6 -11 -3 -28
-12 -37 -20 -16 -14 -18 -14 -24 1 -3 9 -16 16 -27 16 -16 0 -18 -3 -9 -12 7
-7 12 -20 12 -30 0 -10 5 -18 11 -18 5 0 7 -5 3 -12 -5 -8 -10 -5 -17 9 -10
23 -56 37 -72 22 -7 -7 -4 -8 6 -4 10 4 20 1 24 -4 3 -6 11 -8 17 -5 6 4 9 1
6 -6 -6 -20 -28 -24 -28 -6 0 23 -16 20 -34 -6 -18 -25 -21 -42 -7 -33 5 3 13
0 17 -6 4 -8 3 -9 -4 -5 -7 4 -12 1 -12 -8 0 -14 16 -16 103 -16 87 0 110 4
155 25 28 13 52 22 52 20 0 -2 27 12 61 31 33 20 67 33 75 30 8 -3 13 -2 10 2
-7 11 82 65 98 59 7 -3 19 -1 27 5 11 8 10 8 -5 4 -16 -5 -17 -4 -7 8 7 8 20
12 28 9 12 -5 14 -3 8 7 -6 10 -4 12 9 7 10 -4 15 -3 11 3 -3 5 20 26 52 47
32 21 63 42 68 46 6 4 43 32 84 62 171 126 394 347 513 507 22 29 45 60 51 68
7 8 38 55 70 103 l57 88 0 89 0 90 -36 15 c-46 19 -84 19 -84 1 0 -8 16 -30
36 -50 20 -20 31 -36 24 -36 -6 0 -8 -5 -5 -10 4 -6 15 -8 26 -5 17 6 19 3 13
-22 -3 -15 -19 -40 -35 -56 -16 -15 -24 -27 -17 -28 7 0 3 -4 -10 -10 -17 -6
-22 -14 -17 -28 4 -15 -5 -31 -34 -61 -22 -23 -40 -45 -40 -48 5 -32 -3 -51
-17 -45 -13 5 -15 2 -9 -15 5 -16 2 -22 -9 -22 -9 0 -16 -4 -16 -10 0 -5 -7
-10 -15 -10 -8 0 -15 -7 -15 -16 0 -11 -6 -14 -22 -9 -20 5 -21 4 -5 -5 25
-16 21 -30 -8 -30 -14 0 -25 -5 -25 -11 0 -6 -13 -1 -29 10 -35 25 -50 26 -58
4 -5 -14 -8 -12 -15 7 l-8 23 -23 -20 c-27 -26 -67 -39 -76 -25 -9 15 -81 27
-82 13 -1 -6 -2 -17 -3 -23 -1 -7 7 -19 16 -26 10 -7 16 -18 13 -23 -5 -8 5
-12 25 -11 3 0 11 -7 19 -15 11 -12 11 -14 -2 -11 -9 2 -15 -1 -14 -7 1 -5 13
-10 27 -11 37 -1 67 -13 73 -28 7 -18 -40 -59 -49 -45 -4 8 -9 7 -14 -1 -5 -9
-27 -4 -81 18 -41 17 -93 36 -117 43 -29 8 -39 15 -30 21 7 4 -1 5 -19 2 -21
-4 -33 -3 -33 4 0 7 -7 9 -17 5 -9 -4 -14 -2 -11 3 8 12 -44 15 -58 3 -6 -4
-46 -13 -90 -18 -43 -5 -83 -10 -89 -11 -23 -5 -35 1 -35 19 0 12 9 20 25 23
13 3 22 1 19 -3 -9 -14 24 -10 38 5 10 11 21 11 63 0 62 -17 68 -17 63 -2 -2
6 -32 17 -67 24 -64 13 -95 29 -86 44 8 13 -36 24 -85 21 -29 -1 -52 3 -65 13
-19 15 -19 15 7 16 15 0 38 -4 52 -10 27 -10 49 6 26 20 -6 4 -11 11 -10 15 3
12 -83 65 -105 65 -21 1 -67 30 -47 30 22 0 12 17 -25 45 l-38 28 30 -33 30
-33 -25 6 c-14 4 -29 7 -33 7 -5 0 -5 5 -1 12 5 8 2 9 -9 5 -11 -4 -23 3 -37
20 -11 14 -20 22 -20 18 0 -4 -12 5 -27 20 -25 25 -26 28 -11 39 13 10 14 16
6 24 -8 8 -7 13 5 17 9 3 24 7 33 10 9 3 21 2 27 -2 6 -3 47 -7 91 -9 56 -1
75 1 62 8 -13 8 -15 13 -5 24 6 8 21 14 32 14 16 0 18 3 9 12 -23 23 -12 28
13 6 13 -11 22 -24 20 -28 -8 -14 71 -85 100 -89 5 0 10 9 10 21 0 12 6 23 13
26 7 2 12 0 11 -5 -1 -4 1 -16 6 -26 4 -10 2 -24 -6 -33 -11 -14 -10 -19 10
-35 36 -29 55 -25 25 5 -14 15 -14 16 1 16 13 0 16 6 11 25 -4 16 -2 25 5 25
6 0 9 7 5 15 -4 11 1 15 17 15 18 0 19 2 7 10 -12 8 -11 10 7 10 13 0 22 5 20
13 -1 8 14 13 46 15 26 2 47 -1 47 -6 0 -5 14 -7 30 -4 22 3 29 1 27 -9 -2 -8
-2 -11 0 -6 3 4 14 7 26 7 18 0 19 -2 7 -10 -12 -8 -9 -10 13 -10 20 0 27 -5
27 -20 0 -13 5 -17 14 -14 9 4 16 -2 18 -17 2 -15 13 -25 32 -30 47 -13 63
-60 29 -84 -15 -11 -15 -13 5 -24 18 -10 23 -9 28 4 4 9 4 19 1 22 -4 3 -2 14
4 24 10 20 36 16 54 -9 9 -11 14 -8 25 14 13 23 13 28 1 32 -7 2 -22 13 -32
23 -11 11 -28 19 -39 19 -11 0 -20 4 -20 10 0 5 7 7 15 4 8 -4 30 11 55 37 22
23 40 38 40 33 0 -6 -5 -15 -12 -22 -9 -9 -8 -12 5 -12 17 0 37 -28 37 -54 0
-8 -7 -22 -16 -31 -9 -9 -13 -19 -9 -23 3 -4 13 1 20 11 7 10 29 20 49 23 20
2 55 18 78 34 40 29 40 30 15 31 -54 3 -66 11 -48 33 19 22 -3 53 -42 60 -30
6 -34 10 -33 36 1 17 7 30 14 30 15 0 52 58 52 83 0 10 5 15 10 12 6 -3 10 3
10 14 0 29 30 61 57 61 13 0 23 5 23 11 0 6 9 8 20 4 29 -9 60 4 60 25 0 10
-5 22 -10 25 -6 3 -7 17 -4 30 3 12 1 26 -5 29 -6 4 -11 18 -11 30 0 53 -108
214 -160 239 -84 41 -134 77 -137 100 -3 20 2 26 24 32 27 7 28 7 6 17 -21 10
-28 48 -8 48 18 0 38 -17 31 -28 -9 -15 47 -34 90 -30 l39 3 -40 25 c-44 28
-131 61 -139 53 -2 -3 -3 3 -2 14 4 22 -23 65 -35 57 -5 -3 -9 0 -9 7 0 7 -8
5 -19 -7 -12 -12 -15 -23 -9 -31 6 -8 -5 -12 -42 -15 -29 -1 -53 -1 -56 1 -2
2 -22 5 -46 8 -23 2 -46 7 -51 12 -10 10 1 38 18 45 9 3 12 0 8 -10 -3 -7 -9
-14 -14 -14 -5 0 -9 -3 -9 -8 0 -5 113 -8 139 -3 3 1 -4 8 -15 16 -19 14 -19
14 1 15 20 1 20 1 1 15 -11 8 -31 15 -44 15 -27 0 -61 17 -80 39 -10 12 -15
13 -18 4 -9 -22 -25 -14 -22 9 2 16 -3 24 -16 26 -26 6 -44 24 -38 41 3 10 -1
12 -16 9 -25 -7 -31 6 -21 50 7 30 5 32 -14 26 -21 -6 -21 -5 2 15 13 12 22
24 19 27 -4 3 -21 -9 -40 -26 -18 -17 -27 -29 -21 -25 7 3 13 1 13 -4 0 -8
-18 -9 -53 -5 -43 5 -55 3 -60 -9 -4 -11 0 -14 16 -10 21 4 21 4 3 -11 -10 -8
-23 -13 -27 -10 -5 3 -9 0 -9 -6 0 -6 -11 -22 -25 -35 l-26 -23 31 -7 c16 -4
30 -11 30 -17 0 -6 -7 -7 -17 -2 -10 4 -35 9 -55 12 -30 3 -39 0 -45 -14 -4
-10 -2 -19 5 -22 15 -5 16 -32 2 -32 -19 0 -10 -22 23 -54 17 -18 40 -35 50
-39 26 -10 21 -22 -16 -35 -18 -7 -43 -21 -55 -32 -11 -11 -25 -20 -30 -20 -5
0 -19 -11 -32 -25 -12 -13 -28 -21 -34 -18 -6 4 -5 -1 2 -9 8 -9 20 -14 28
-11 8 3 14 0 14 -7 0 -8 -9 -11 -25 -8 -14 3 -28 2 -30 -2 -7 -11 22 -33 34
-26 6 4 17 -6 25 -23 14 -26 14 -29 -2 -27 -9 0 -20 6 -25 11 -10 14 -47 -32
-40 -50 3 -8 14 -15 24 -15 22 0 135 54 160 76 12 11 23 12 40 5 13 -5 18 -10
11 -10 -17 -1 -43 -27 -35 -35 4 -3 -4 -6 -16 -6 -12 0 -19 -4 -16 -10 3 -6
-1 -13 -9 -16 -9 -3 -14 -10 -11 -14 8 -12 -20 -19 -36 -9 -8 5 -25 9 -39 9
-24 0 -24 -1 7 -20 27 -16 31 -23 24 -42 -4 -13 -13 -23 -18 -23 -22 0 -152
71 -163 89 -11 17 -9 23 10 38 12 10 31 18 43 18 15 0 11 7 -21 30 -39 28 -76
32 -70 6 2 -6 -5 -20 -15 -31 -9 -11 -33 -39 -52 -62 l-36 -41 23 -16 c19 -14
20 -16 5 -16 -10 0 -16 -4 -13 -9 8 -12 -63 -53 -80 -47 -8 3 -13 0 -11 -7 1
-6 -9 -13 -23 -15 -13 -2 -30 -11 -37 -20 -7 -10 -13 -13 -13 -8 0 14 -50 -47
-50 -61 0 -7 0 -15 0 -18 -1 -15 -52 -56 -64 -52 -9 4 -13 0 -11 -11 2 -9 4
-17 5 -17 1 0 3 -8 5 -18 2 -11 1 -16 -2 -13 -3 3 -12 -2 -18 -11 -12 -16 -14
-16 -39 0 -15 10 -24 22 -21 27 12 19 -36 9 -76 -15 -22 -14 -43 -24 -48 -21
-13 8 -142 -34 -136 -45 6 -8 -8 -13 -27 -10 -5 0 -8 -3 -8 -8 0 -5 -9 -13
-20 -16 -11 -4 -17 -11 -14 -17 4 -6 3 -9 -2 -6 -5 3 -20 1 -34 -5 -14 -5 -36
-11 -50 -12 -14 -1 -33 -5 -42 -9 -9 -4 -21 -5 -27 -2 -5 4 -13 1 -17 -5 -4
-8 -3 -9 4 -5 7 4 13 1 14 -6 0 -7 2 -17 3 -23 2 -5 4 -14 5 -20 1 -5 5 -1 10
10 8 19 9 19 9 -4 1 -17 -3 -22 -14 -17 -9 3 -15 0 -15 -9 0 -8 4 -15 10 -15
5 0 6 -8 3 -17 -6 -15 -7 -15 -14 3 -7 17 -8 17 -8 1 -1 -10 -6 -15 -11 -12
-7 5 -8 11 -1 19 5 6 12 27 16 46 5 33 4 34 -11 15 -8 -11 -19 -19 -23 -18 -4
1 -7 -10 -8 -25 -1 -46 -3 -52 -13 -52 -5 0 -10 9 -10 20 0 10 -10 24 -21 31
-14 7 -18 14 -11 18 6 4 -8 8 -31 8 -29 2 -37 -1 -27 -7 12 -8 11 -10 -7 -10
-19 0 -22 5 -19 35 2 29 -1 35 -17 35 -10 0 -25 7 -34 15 -11 11 -19 13 -28 5
-15 -13 -85 14 -85 33 0 8 -4 7 -10 -3 -8 -12 -12 -13 -19 -2 -4 8 -11 13 -15
13 -19 -3 -28 2 -59 28 -30 27 -60 30 -58 5 2 -15 -62 -14 -116 2 -29 9 -62
14 -75 12 -13 -2 -30 4 -38 12 -8 9 -29 26 -47 38 -31 22 -33 22 -65 6 -18
-10 -45 -18 -60 -19 -25 -2 -28 1 -28 26 0 18 -7 32 -20 39 -16 8 -20 8 -20
-4 0 -8 6 -17 13 -19 7 -3 5 -6 -5 -6 -18 -1 -21 6 -19 49 l1 25 -16 -23 c-18
-24 -36 -30 -31 -9 1 6 -6 11 -15 11 -13 -1 -18 5 -18 22 0 12 -5 26 -11 30
-8 5 -10 -4 -6 -32 3 -21 3 -31 1 -21 -7 22 -20 22 -34 0 -9 -15 -10 -14 -5 7
5 20 2 19 -15 -10 -13 -19 -26 -36 -31 -38 -5 -2 -10 -18 -10 -35 -1 -21 -3
-25 -6 -12 -3 11 -9 24 -13 29 -5 5 0 16 12 26 17 14 19 20 9 38 -6 12 -16 22
-22 22 -6 0 -7 5 -3 12 5 8 11 6 20 -7 7 -9 18 -15 25 -13 9 3 6 11 -10 27
-21 21 -21 24 -6 35 23 17 17 92 -7 90 -10 -1 -16 1 -14 5 3 4 -4 18 -15 31
-16 21 -20 23 -29 10 -5 -8 -10 -10 -10 -5 0 6 -5 3 -10 -5 -8 -12 -10 -11 -8
5 3 22 -17 98 -33 131 -6 12 -26 27 -45 34 -19 8 -34 19 -34 24 0 6 -5 4 -10
-4 -8 -12 -10 -11 -10 6 0 12 -9 33 -21 48 -11 14 -17 26 -12 26 8 0 33 56 33
73 0 3 -12 7 -27 9 -29 3 -29 3 -51 123 -5 22 -13 39 -18 38 -6 -1 -11 10 -11
25 0 15 -9 46 -21 70 -13 27 -16 42 -9 42 8 0 7 4 -2 9 -11 7 -9 10 8 16 15 4
21 15 21 36 0 16 0 32 0 37 0 4 -13 7 -29 8 -21 1 -28 -3 -24 -13 3 -8 2 -13
-3 -12 -21 5 -42 -14 -39 -33 3 -11 1 -17 -3 -14 -4 4 -8 12 -8 17 -1 5 -2 14
-3 19 0 6 -7 10 -15 10 -24 0 -12 48 19 74 25 22 27 26 12 32 -10 3 -25 0 -34
-7 -15 -12 -16 -12 -10 3 3 10 3 18 -2 18 -15 0 -20 42 -8 61 7 11 23 19 37
19 24 1 24 1 6 15 -11 8 -20 24 -21 34 -1 16 2 18 23 10 29 -11 39 -5 23 14
-9 11 -8 17 4 27 18 15 19 41 3 59 -11 11 -10 12 0 7 14 -8 52 28 52 48 0 6
-7 22 -16 35 -16 23 -16 25 7 42 13 10 27 19 31 19 16 0 -5 28 -25 34 -21 6
-21 7 8 21 17 9 36 23 43 32 9 13 12 14 12 2 0 -12 2 -12 10 1 11 17 14 37 4
27 -4 -3 -14 4 -24 16 -29 35 -1 66 69 76 5 0 15 16 22 34 16 39 33 57 52 57
12 0 13 4 4 24 -7 14 -16 24 -21 23 -6 -1 -12 6 -14 16 -2 10 2 17 11 17 9 0
18 6 20 13 3 7 6 5 6 -5 1 -22 14 -23 32 -2 11 14 10 18 -6 30 -17 13 -17 15
-2 32 25 27 21 40 -23 79 -22 20 -40 40 -40 45 0 5 4 7 8 4 12 -7 162 21 178
34 8 7 14 24 14 38 0 14 7 33 15 42 8 9 16 36 17 59 2 51 19 64 68 47 51 -17
80 -10 80 19 0 20 8 26 43 36 23 7 48 17 56 23 12 9 13 8 6 -3 -5 -9 -4 -12 2
-8 6 4 18 23 28 42 15 32 15 39 2 59 -9 13 -29 29 -46 36 -17 7 -31 18 -31 25
0 20 -41 41 -92 49 -46 7 -69 30 -54 55 3 5 -4 9 -17 9 -35 0 -148 22 -169 33
-19 10 -19 11 3 35 28 30 28 30 92 0 55 -26 139 -46 188 -46 22 0 32 -6 38
-24 10 -26 96 -81 111 -71 16 10 2 23 -46 45 -66 30 -57 45 34 58 113 16 245
87 324 175 54 60 47 25 -7 -39 -44 -51 -55 -74 -36 -74 5 0 3 -12 -4 -27 -7
-16 -15 -46 -16 -68 -2 -22 -6 -44 -10 -50 -4 -6 4 -10 21 -11 17 -1 31 5 34
13 9 22 26 5 26 -25 0 -18 3 -23 9 -14 6 10 11 9 22 -4 11 -13 11 -18 2 -21
-31 -11 -9 -23 32 -20 51 5 66 14 45 27 -8 6 -10 10 -5 11 6 1 19 3 30 4 11 2
29 6 39 11 13 5 17 4 12 -4 -16 -26 253 -2 275 24 6 8 20 14 32 14 27 0 87 66
87 96 0 13 -4 24 -9 24 -5 0 -11 14 -14 30 -5 21 -12 30 -26 30 -13 0 -19 5
-15 14 6 16 -36 86 -52 86 -6 0 -19 9 -29 20 -12 13 -25 18 -38 14 -13 -4 -17
-2 -12 6 4 6 0 17 -9 23 -8 7 -18 34 -21 62 -17 160 -17 164 -31 158 -40 -15
-50 49 -13 83 23 21 27 53 4 34 -12 -10 -16 -9 -21 6 -4 11 -13 33 -20 51 -11
28 -10 35 7 57 10 13 19 28 19 33 0 4 12 13 26 20 24 11 27 10 37 -17 6 -17
16 -30 22 -30 18 0 -7 -130 -28 -141 -9 -6 -17 -19 -17 -29 0 -23 10 -26 28
-8 9 9 12 8 12 -8 0 -11 7 -29 16 -40 15 -19 15 -19 9 0 -3 11 0 23 7 28 18
11 28 10 28 -3 0 -5 -4 -7 -10 -4 -5 3 -10 1 -10 -5 0 -6 7 -13 15 -16 20 -8
19 -30 -2 -44 -17 -11 -17 -11 0 -6 20 6 66 -12 68 -28 1 -6 1 -17 0 -25 -2
-7 1 -11 6 -8 4 3 14 -2 22 -10 12 -14 12 -15 0 -11 -8 3 -19 -2 -26 -11 -7
-9 -13 -11 -13 -5 0 6 -13 11 -29 12 -24 0 -28 -3 -24 -19 3 -10 9 -19 13 -19
4 0 8 -12 8 -27 0 -18 8 -33 23 -42 13 -9 43 -34 67 -56 24 -22 51 -47 59 -55
10 -8 37 -15 62 -16 72 -1 131 -15 131 -30 0 -8 -8 -14 -17 -15 -15 0 -14 -2
3 -9 45 -18 115 -22 183 -9 70 12 90 26 51 36 -30 8 -24 30 10 42 17 5 30 17
30 25 0 9 15 22 33 30 l32 15 -32 -6 c-56 -9 -36 12 36 41 84 33 177 115 187
164 4 18 10 32 14 32 5 0 7 16 4 35 -3 25 0 37 11 41 8 3 12 10 9 16 -3 5 1
17 9 26 8 10 14 38 14 68 0 32 6 61 17 75 13 19 16 20 16 6 0 -9 5 -17 11 -17
11 0 9 -28 -6 -62 -4 -11 -3 -18 4 -18 6 0 11 7 11 16 0 8 5 12 11 9 6 -4 8
-13 5 -21 -6 -16 10 -29 19 -14 3 5 19 10 35 10 27 0 28 -1 23 -42 -7 -71 -13
-90 -26 -85 -7 2 -13 16 -15 30 -3 24 -22 40 -22 18 0 -5 -9 -7 -20 -4 -18 5
-19 2 -13 -27 4 -23 3 -31 -5 -26 -16 9 -32 -26 -32 -71 0 -53 -10 -88 -21
-72 -4 8 -11 10 -15 6 -4 -3 -1 -14 6 -22 12 -14 15 -14 35 5 25 24 35 25 35
5 0 -8 -11 -22 -24 -30 -34 -22 -64 -6 -68 37 l-3 31 -50 -50 c-69 -68 -107
-113 -98 -115 25 -5 61 -3 57 4 -3 4 5 12 16 18 17 9 20 8 17 -9 -5 -30 -46
-62 -71 -55 -17 5 -18 4 -9 -6 15 -16 -8 -41 -40 -46 -69 -11 -92 -20 -92 -39
0 -19 -28 -30 -102 -38 -32 -4 -39 -15 -52 -76 -13 -61 -4 -79 50 -101 16 -7
29 -17 29 -22 0 -5 24 -37 53 -72 28 -36 59 -74 67 -85 9 -13 36 -27 65 -34
29 -8 49 -18 47 -25 -1 -7 2 -12 7 -12 5 0 3 -14 -6 -31 -8 -16 -13 -32 -11
-34 2 -3 29 0 59 4 32 5 55 5 57 0 2 -5 8 -9 14 -9 6 0 6 6 -2 15 -6 8 -9 19
-5 25 10 16 33 12 44 -7 11 -19 15 -4 5 21 -4 11 -19 14 -67 11 -34 -2 -55 -1
-47 2 43 14 80 35 80 43 0 6 -4 10 -9 10 -5 0 -7 9 -4 21 5 19 11 21 65 17 75
-6 103 -28 35 -28 -37 0 -47 -3 -47 -17 0 -15 -2 -14 -15 3 -13 18 -14 18 -8
-4 4 -18 10 -21 27 -15 28 9 97 5 112 -8 7 -5 10 -19 7 -30 -4 -15 -2 -18 11
-13 10 4 16 1 16 -8 0 -11 13 -15 45 -16 37 0 51 -6 78 -32 l32 -33 -37 6
c-25 4 -38 1 -42 -8 -2 -7 2 -16 9 -19 9 -3 12 -12 8 -23 -6 -16 -5 -16 10 -4
15 12 17 11 17 -2 0 -13 13 -15 85 -12 47 2 88 -1 91 -6 4 -6 11 -6 19 1 9 7
21 6 44 -3 17 -7 29 -16 26 -19 -9 -9 53 -31 88 -32 18 0 59 1 92 2 58 2 59 2
36 18 -13 10 -33 14 -49 11 -46 -9 -80 2 -75 24 4 14 1 18 -9 14 -18 -7 -103
28 -115 48 -4 7 -20 22 -35 31 -32 21 -44 51 -28 71 6 8 9 18 6 24 -9 14 22
18 79 9 66 -10 89 -3 75 23 -9 16 -7 19 10 19 17 0 20 -6 20 -45 0 -45 12 -60
24 -29 5 12 10 14 20 5 7 -6 15 -9 17 -7 2 2 9 -2 16 -9 9 -10 5 -14 -20 -21
-30 -8 -29 -8 18 -11 37 -3 59 -11 80 -30 25 -21 26 -24 8 -19 -18 6 -21 4
-16 -15 4 -12 15 -31 26 -42 17 -17 24 -18 61 -8 60 17 116 47 161 86 44 39
55 42 55 20 0 -18 14 -19 28 -2 6 7 26 19 45 26 24 10 38 24 46 47 7 19 16 34
21 34 5 0 14 16 20 35 6 19 15 35 19 35 15 0 28 -45 24 -77 -6 -37 14 -63 47
-63 21 0 32 18 45 78 6 28 4 32 -14 32 -11 0 -23 5 -26 10 -3 6 -2 10 3 10 19
0 21 30 4 46 -12 13 -13 19 -4 22 13 4 17 32 4 32 -12 0 -8 53 5 68 19 20 35
15 27 -10 -4 -13 -8 -36 -8 -53 -1 -24 4 -31 22 -33 12 -2 22 -8 22 -13 0 -5
5 -9 10 -9 6 0 10 56 10 148 0 84 -4 141 -9 134 -7 -11 -9 -11 -14 2 -10 25
-21 19 -53 -26 -24 -35 -29 -49 -23 -76 7 -32 -2 -49 -21 -37 -5 3 -10 2 -10
-4 0 -5 6 -12 13 -15 6 -3 1 -3 -13 0 -34 9 -36 12 -21 36 12 19 11 24 -9 40
-12 9 -19 22 -15 28 4 6 -8 27 -25 46 -17 20 -29 42 -26 50 3 8 1 14 -5 14 -6
0 -9 7 -5 15 3 8 1 15 -4 15 -6 0 -10 8 -10 18 0 10 -11 29 -25 42 -16 15 -25
34 -25 54 0 24 -14 45 -65 98 -36 37 -65 71 -65 76 0 22 -37 37 -99 40 -139 6
-143 9 -128 59 6 18 14 33 19 33 5 0 6 -4 3 -10 -4 -6 2 -6 17 0 13 6 31 13
41 16 19 7 23 29 7 39 -5 3 -10 15 -10 26 0 10 -5 19 -10 19 -6 0 -8 11 -4 26
6 24 5 25 -14 15 -19 -10 -21 -9 -15 6 5 13 3 15 -13 9 -15 -6 -17 -5 -6 5 14
15 16 33 2 24 -6 -3 -13 1 -16 9 -7 18 -34 22 -34 6 0 -5 -4 -10 -10 -10 -5 0
-10 7 -10 15 0 8 -7 15 -15 15 -8 0 -15 5 -15 10 0 6 -8 10 -17 11 -11 0 -13
3 -5 6 17 7 15 30 -3 37 -9 3 -20 -5 -30 -22 l-14 -27 6 33 c4 23 2 32 -8 32
-25 0 -69 56 -69 88 0 44 -23 59 -52 32 -15 -14 -29 -19 -43 -14 -11 3 -40 9
-64 11 -41 5 -43 6 -37 34 l6 29 -60 0 -60 0 0 -37 c-1 -32 -2 -35 -11 -20 -6
10 -9 27 -6 37 4 14 0 18 -17 17 -11 0 -24 -6 -28 -12 -5 -6 -8 -6 -8 3 0 8
-23 12 -80 12 -77 0 -80 -1 -70 -19 5 -11 10 -30 10 -42 0 -12 10 -30 22 -40
21 -19 43 -26 34 -11 -2 4 0 14 5 22 8 12 12 12 16 3 2 -7 15 -13 27 -13 24 0
46 -17 46 -37 0 -9 -9 -11 -30 -6 -33 6 -38 -3 -15 -33 21 -28 18 -37 -12 -29
-48 12 -83 47 -113 113 -5 13 -14 20 -20 17 -5 -3 -10 -2 -10 3 0 5 -14 23
-30 41 l-30 31 -354 0 c-371 0 -375 0 -368 -43 2 -9 0 -17 -5 -16 -4 1 -19 -3
-33 -9 -14 -6 -21 -11 -16 -11 5 -1 3 -8 -5 -17 -10 -13 -10 -17 2 -25 16 -10
76 -12 66 -2 -12 11 14 33 39 33 28 0 33 -25 7 -34 -13 -5 -14 -9 -3 -19 10
-9 14 -9 17 1 8 21 33 -6 33 -35 0 -14 4 -21 10 -18 6 3 10 0 10 -7 0 -7 12
-19 27 -26 35 -16 53 -1 35 29 -11 17 -9 23 15 44 16 13 31 25 34 25 8 0 22
-40 20 -56 -1 -7 9 -15 21 -19 l23 -7 -25 -8 c-14 -4 -18 -8 -10 -9 8 -1 -2
-12 -23 -26 -20 -14 -37 -30 -37 -35 0 -6 -7 -10 -16 -10 -9 0 -12 -5 -8 -12
5 -8 2 -9 -11 -4 -16 6 -16 4 -4 -11 7 -10 10 -15 5 -11 -5 4 -21 1 -37 -7
-35 -19 -37 -19 -42 3 -3 13 -6 10 -11 -10 -5 -16 -14 -28 -22 -28 -8 0 -14
-6 -14 -13 0 -8 -9 -22 -20 -32 -12 -11 -20 -13 -20 -6 0 7 -4 10 -9 6 -5 -3
-12 -1 -15 4 -6 10 -18 9 -53 -3 -13 -4 -23 -12 -23 -17 0 -6 5 -7 10 -4 6 3
10 -3 10 -15 0 -21 0 -21 -21 -1 -26 24 -73 35 -65 14 3 -8 1 -11 -4 -8 -6 3
-11 -2 -11 -12 -1 -10 -6 4 -11 32 -6 34 -6 51 1 53 6 2 11 13 11 23 0 11 5
17 10 14 6 -3 10 3 10 14 0 12 8 29 19 40 11 11 16 24 11 31 -5 7 -3 24 3 38
9 20 8 26 -8 38 -20 15 -47 18 -59 7 -4 -4 -17 -8 -29 -9 -12 0 -32 -4 -44 -8
-19 -6 -23 -3 -29 20 -4 15 -2 41 5 59 6 17 11 50 11 72 l0 41 -150 1 c-92 0
-149 -3 -145 -9 3 -5 21 -12 39 -16 37 -6 56 -35 56 -84 0 -16 6 -35 14 -42 7
-8 21 -30 31 -48 9 -19 29 -47 43 -63 25 -26 25 -28 7 -41 -15 -11 -17 -21
-12 -61 6 -39 4 -50 -10 -61 -17 -13 -15 -17 20 -47 35 -30 39 -38 42 -92 2
-33 -1 -65 -7 -72 -6 -8 -8 -34 -3 -69 5 -40 3 -54 -4 -50 -7 5 -11 -9 -12
-41 -1 -26 -3 -40 -6 -30 -2 9 -8 15 -13 12 -10 -6 0 145 11 167 14 26 10 35
-6 14 -8 -11 -15 -16 -16 -10 -1 5 -5 -7 -9 -26 -5 -22 -5 -37 2 -41 14 -9
-49 -30 -67 -23 -8 4 -15 1 -15 -6 0 -6 -5 -8 -11 -5 -6 4 -13 -2 -16 -13 -5
-20 -31 -37 -41 -27 -3 3 0 5 6 5 7 0 12 8 12 19 0 10 11 38 24 62 38 67 59
188 51 287 -7 89 -16 120 -64 224 -30 63 -112 173 -131 173 -4 0 -12 3 -16 8
-4 4 -149 7 -323 7 l-316 -1 -28 -24z m2623 -486 c0 -8 5 -7 16 2 9 8 18 9 22
3 10 -14 125 -14 134 -1 6 9 8 9 8 0 0 -6 -4 -15 -10 -18 -18 -11 -11 -35 8
-28 12 4 11 1 -6 -14 -15 -14 -44 -23 -90 -29 -93 -10 -95 -10 -109 -1 -7 5
-17 6 -22 3 -5 -4 -12 -2 -15 3 -3 5 1 11 9 15 9 3 15 18 15 35 0 26 9 38 33
40 4 1 7 -4 7 -10z m-2770 -554 c0 -8 4 -15 10 -15 5 0 16 -13 25 -30 11 -21
23 -30 39 -30 17 0 23 -5 22 -17 -2 -14 -12 -18 -42 -18 -26 0 -38 4 -36 13 1
6 -3 12 -9 12 -6 0 -9 -10 -7 -22 2 -17 13 -24 50 -33 36 -7 45 -13 39 -23 -4
-8 -11 -13 -15 -13 -19 3 -24 -1 -29 -20 -3 -11 -15 -23 -26 -26 -12 -3 -21
-12 -21 -20 0 -9 6 -13 15 -9 12 4 15 -1 13 -24 -1 -16 -4 -27 -6 -25 -3 2
-11 -3 -19 -11 -9 -8 -18 -12 -21 -9 -4 3 0 10 8 15 8 6 10 10 4 10 -12 0 -11
102 1 141 4 12 3 19 -2 16 -5 -3 -10 9 -11 26 -2 17 -7 34 -13 38 -5 3 -9 10
-8 15 1 5 1 11 -1 14 -1 3 -3 17 -5 33 -3 23 0 27 21 27 15 0 24 -6 24 -15z
m-157 -382 c-6 -17 -5 -17 13 -1 19 16 20 16 32 -2 7 -11 12 -25 12 -32 -1 -7
-8 -2 -16 12 l-15 25 6 -30 c4 -16 12 -33 18 -37 9 -6 9 -8 0 -8 -7 0 -13 -8
-13 -17 0 -9 -11 -28 -24 -42 -22 -23 -23 -28 -10 -45 7 -11 17 -17 20 -13 4
4 1 14 -7 24 -12 15 -12 16 3 10 13 -5 19 0 24 18 3 14 10 25 14 25 5 0 12 9
15 20 8 27 25 26 25 -2 0 -12 7 -29 16 -39 15 -16 13 -18 -22 -28 -21 -6 -55
-27 -75 -47 -31 -30 -41 -35 -53 -25 -11 9 -15 9 -19 -1 -2 -7 -8 -10 -12 -6
-17 16 5 38 35 34 33 -4 38 5 15 24 -10 8 -15 9 -15 2 0 -6 -7 -9 -15 -6 -8 4
-15 13 -15 21 0 8 -5 11 -12 7 -10 -6 -10 -4 0 7 16 18 15 29 -4 29 -13 0 -12
4 5 26 11 15 18 30 15 35 -3 5 2 12 10 15 9 3 14 9 11 14 -4 6 30 50 40 50 2
0 2 -8 -2 -17z m-948 -479 c17 -3 54 -17 83 -30 29 -13 59 -24 66 -24 8 0 17
-7 20 -15 3 -9 1 -15 -7 -14 -28 3 -58 -2 -53 -9 3 -5 -8 -6 -24 -4 -16 2 -42
-3 -58 -11 -36 -17 -122 -5 -146 22 -25 28 -24 56 1 56 13 0 23 3 23 8 0 18
26 37 45 32 11 -3 34 -8 50 -11z m4107 -1183 c-13 -8 108 -8 153 0 17 3 19 -1
17 -26 -2 -16 -7 -34 -12 -39 -4 -4 -41 -1 -81 8 -42 10 -75 13 -78 8 -3 -5
-28 -12 -56 -15 -27 -4 -73 -9 -101 -13 -46 -6 -52 -4 -56 14 -9 34 29 60 92
65 110 7 135 7 122 -2z m-569 -613 c-14 -15 -14 -18 -2 -13 12 5 16 -3 17 -36
1 -23 7 -48 13 -55 6 -8 9 -14 5 -14 -10 0 20 -55 38 -69 18 -15 14 -26 -17
-42 -18 -9 -20 -9 -9 2 6 7 12 18 12 24 0 5 -5 3 -10 -5 -9 -13 -11 -13 -21 0
-9 13 -10 12 -5 -3 3 -10 3 -17 -2 -15 -4 1 -28 11 -54 22 -26 10 -45 22 -42
27 3 5 -2 6 -10 3 -8 -3 -24 1 -36 9 l-20 14 22 19 c12 10 18 13 14 7 -5 -9
-2 -11 7 -7 8 3 18 1 22 -5 10 -16 25 -13 19 4 -3 8 -11 13 -17 12 -15 -3 -9
63 6 82 9 11 9 13 0 8 -7 -5 -6 4 3 23 9 18 23 30 35 30 10 0 19 5 19 11 0 8
5 7 15 -1 14 -11 14 -15 -2 -32z m-3019 -160 c-4 -6 2 -6 15 1 17 9 24 8 41
-9 14 -14 20 -16 20 -6 0 9 8 12 26 8 23 -4 25 -9 22 -38 -5 -40 17 -48 24 -9
3 14 1 25 -4 25 -5 0 -6 5 -2 11 4 6 10 7 15 2 11 -11 0 -73 -13 -73 -5 0 -18
-10 -28 -22 l-17 -22 -14 22 c-16 25 -31 30 -23 7 3 -8 -1 -22 -10 -30 -9 -9
-16 -12 -16 -6 0 6 -9 11 -19 11 -29 0 -37 20 -11 27 22 6 22 7 5 19 -11 8
-16 21 -12 34 3 11 2 18 -3 15 -8 -5 -20 41 -12 49 9 9 23 -5 16 -16z m1712
-333 c4 -10 14 -13 30 -9 24 6 34 -9 14 -21 -5 -3 -10 -12 -10 -18 0 -8 3 -7
9 2 6 9 9 -2 8 -30 0 -24 3 -70 7 -101 6 -54 6 -58 -14 -58 -16 0 -20 6 -20
31 0 17 -7 37 -15 45 -8 8 -20 34 -27 57 -6 23 -17 45 -22 49 -6 4 -7 10 -3
14 4 4 1 12 -6 18 -7 6 -11 10 -8 9 2 -1 10 4 18 12 18 19 32 19 39 0z m-1080
-207 c-2 -49 11 -109 27 -124 4 -4 7 -14 7 -23 0 -14 -2 -14 -10 -1 -9 13 -10
13 -10 0 0 -9 5 -21 12 -28 6 -6 8 -15 4 -19 -4 -4 -20 7 -36 24 -16 17 -27
33 -24 36 3 3 0 8 -7 12 -9 6 -10 1 -5 -19 4 -15 2 -26 -4 -26 -5 0 -10 4 -10
10 0 5 -7 6 -17 3 -12 -5 -14 -3 -8 7 6 10 4 12 -8 7 -11 -4 -17 -1 -17 8 0 7
-8 16 -17 19 -23 8 -41 47 -33 71 6 17 7 17 12 -3 6 -22 48 -32 48 -12 0 6 21
32 48 59 26 26 48 49 48 49 1 1 1 -22 0 -50z m1379 -249 c-4 -11 -2 -19 5 -19
7 0 10 -7 6 -15 -3 -10 1 -15 12 -16 12 0 13 -2 3 -6 -7 -3 -9 -8 -5 -12 5 -3
16 -19 24 -36 9 -17 25 -31 38 -33 19 -3 21 -6 11 -18 -10 -12 -9 -13 6 -7 14
5 17 3 12 -10 -4 -11 -1 -17 8 -17 8 0 12 -6 9 -14 -3 -8 0 -17 7 -22 8 -5 10
-3 4 7 -5 8 3 2 17 -12 31 -33 44 -64 24 -56 -8 3 -17 1 -19 -6 -2 -7 -12 3
-21 21 -14 27 -20 31 -32 21 -11 -9 -14 -8 -14 5 0 9 -7 19 -15 22 -8 4 -12
10 -9 15 3 5 -1 9 -8 9 -10 0 -10 2 -1 8 8 5 1 14 -22 26 -35 19 -46 36 -23
36 6 0 8 3 5 6 -4 4 -13 1 -21 -5 -12 -10 -14 -9 -9 8 3 12 1 21 -6 21 -6 0
-8 7 -4 17 5 11 3 14 -6 8 -10 -6 -11 -3 -3 11 5 11 8 33 7 49 -2 35 3 48 16
39 5 -3 7 -14 4 -25z m374 21 c-5 -4 3 -21 20 -40 16 -19 27 -39 24 -46 -2 -6
2 -28 11 -47 13 -33 13 -36 -2 -39 -27 -5 -62 15 -63 37 -1 17 -2 17 -6 3 -6
-24 -19 -23 -26 3 -3 13 -12 19 -24 17 -15 -2 -17 3 -14 32 1 19 7 41 13 47 6
7 8 19 5 26 -4 10 6 13 34 13 21 0 34 -3 28 -6z m6 -245 c22 0 45 -3 51 -7 6
-5 20 -7 30 -6 36 5 102 -24 113 -48 9 -22 8 -24 -13 -24 -20 0 -23 -5 -22
-29 0 -16 4 -27 9 -24 4 2 5 9 2 14 -10 15 11 10 25 -6 6 -8 9 -18 6 -24 -10
-16 -53 3 -77 34 -13 16 -17 25 -9 20 9 -5 7 0 -4 13 -11 12 -25 22 -32 22 -7
0 -17 7 -21 15 -5 8 -24 18 -42 21 -25 5 -32 4 -27 -4 4 -7 15 -12 25 -12 10
0 26 -10 37 -22 10 -12 14 -18 7 -15 -6 4 -15 3 -18 -3 -5 -8 -11 -8 -20 0
-10 8 -15 6 -20 -9 -4 -12 -12 -18 -20 -14 -8 3 -12 9 -9 14 3 5 -1 6 -9 3
-16 -6 -77 42 -77 61 0 20 53 15 72 -8 22 -24 23 -10 3 17 -8 11 -15 25 -15
30 0 8 3 8 8 1 4 -6 25 -10 47 -10z"/>
<path d="M1150 4705 c0 -3 7 -16 16 -29 l15 -24 -70 3 c-39 1 -71 1 -71 -1 0
-8 53 -25 104 -35 27 -5 51 -11 53 -12 5 -6 -27 -66 -40 -74 -7 -4 -21 -7 -32
-8 -13 0 -21 -8 -23 -24 -3 -20 0 -23 18 -18 19 5 21 3 14 -26 -3 -18 -11 -35
-17 -39 -13 -8 -14 -7 33 -30 19 -9 45 -15 58 -14 26 3 122 56 122 68 0 4 -32
8 -71 10 l-71 3 22 25 c26 30 53 80 43 80 -4 0 -2 5 5 12 15 15 16 38 1 38
-17 0 -48 43 -49 66 0 21 -17 34 -46 34 -8 0 -14 -2 -14 -5z"/>
<path d="M1240 4325 c0 -10 -10 -15 -30 -15 -19 0 -30 -5 -30 -14 0 -10 35
-26 101 -48 93 -30 101 -31 110 -15 6 9 18 17 27 17 14 1 13 4 -7 20 -13 11
-31 20 -41 20 -9 0 -30 11 -46 25 -32 28 -84 34 -84 10z"/>
<path d="M2134 4131 c-33 -14 -72 -34 -87 -43 -14 -10 -33 -18 -41 -18 -23 0
-28 -17 -14 -42 7 -13 11 -26 10 -30 -1 -5 3 -8 8 -8 6 0 10 -7 10 -16 0 -11
6 -15 19 -11 12 3 27 -4 40 -19 12 -13 16 -24 10 -24 -6 0 -8 -9 -3 -22 9 -33
12 -34 32 -15 14 14 14 19 4 26 -21 13 14 43 42 35 21 -6 21 -6 -1 11 -13 9
-23 21 -23 27 0 6 -7 16 -14 22 -8 6 -16 25 -18 41 -3 29 -1 30 40 33 31 2 42
8 43 20 1 11 4 8 9 -8 8 -26 10 -24 14 20 4 28 -3 51 -13 49 -3 -1 -33 -13
-67 -28z"/>
<path d="M2556 3938 c3 -4 -4 -8 -14 -8 -11 0 -35 -3 -53 -6 -26 -4 -31 -3
-19 5 12 9 10 11 -10 6 -14 -3 -49 -7 -78 -9 -30 -3 -64 -12 -77 -20 -15 -10
-26 -12 -30 -6 -4 6 -19 -3 -35 -20 -15 -16 -35 -30 -44 -30 -9 0 -16 -3 -16
-7 0 -5 -16 -8 -35 -9 -22 0 -31 3 -23 8 10 6 9 8 -4 8 -21 0 -50 -28 -42 -41
3 -5 10 -7 15 -4 5 4 9 1 9 -5 0 -8 -9 -10 -26 -6 -17 5 -23 3 -19 -4 3 -5 1
-10 -5 -10 -6 0 -9 -3 -7 -7 3 -5 -5 -8 -18 -8 -13 0 -21 5 -18 10 3 6 -4 0
-16 -13 -13 -12 -36 -25 -52 -29 -16 -3 -32 -10 -35 -14 -3 -5 -10 -7 -15 -4
-5 3 -6 -2 -2 -11 6 -16 7 -15 20 2 7 10 13 13 13 8 0 -22 -22 -33 -46 -22
-20 9 -22 14 -11 27 11 14 10 14 -6 2 -17 -14 -17 -16 -3 -27 19 -13 10 -50
-18 -73 -13 -11 -15 -10 -11 8 2 12 6 25 9 29 2 4 -4 9 -15 9 -10 1 -19 -3
-19 -8 0 -6 5 -7 10 -4 6 3 10 2 10 -4 0 -18 -20 -23 -38 -10 -14 11 -15 11
-4 -1 15 -18 16 -34 0 -24 -7 4 -8 3 -4 -5 6 -9 11 -9 22 0 8 6 14 7 14 2 0
-5 28 -10 61 -11 65 -1 82 -8 60 -22 -10 -5 -12 -19 -8 -43 5 -31 3 -34 -15
-29 -17 4 -19 1 -14 -19 3 -13 3 -18 0 -11 -9 20 -27 14 -21 -8 3 -13 0 -20
-9 -20 -8 0 -14 -7 -12 -16 2 -9 -6 -21 -17 -28 -30 -17 -49 -37 -51 -54 -2
-8 -8 -20 -14 -26 -8 -8 -9 -6 -4 7 4 13 2 16 -9 12 -8 -4 -14 -14 -13 -23 0
-10 -7 -18 -20 -20 -34 -5 -85 -142 -53 -142 6 0 17 -7 23 -15 7 -9 35 -16 76
-19 64 -5 66 -4 68 21 1 13 5 30 9 36 13 21 10 67 -4 79 -12 10 -21 9 -44 -5
l-30 -16 5 27 c2 15 5 30 5 35 2 15 87 99 109 108 17 6 30 5 45 -6 12 -8 29
-15 39 -15 24 0 56 37 53 63 0 12 2 30 7 39 6 13 5 16 -7 12 -18 -7 -21 21 -3
32 7 5 8 3 3 -6 -6 -9 -4 -11 4 -6 7 5 10 15 6 23 -4 12 -2 13 8 5 10 -8 13
-7 13 6 0 10 -9 18 -22 18 -15 1 -21 -3 -18 -11 8 -20 -8 -24 -41 -9 l-30 13
32 7 c18 3 31 10 28 14 -2 3 2 7 10 7 8 0 15 -4 15 -9 0 -4 5 -8 11 -8 5 0 7
5 4 11 -4 6 2 5 13 -2 12 -7 19 -17 16 -21 -3 -4 2 -5 10 -2 9 3 13 10 10 15
-9 16 25 22 44 8 9 -7 14 -10 10 -5 -8 9 20 41 29 33 3 -3 17 -1 32 5 14 6 42
14 61 18 19 5 53 15 75 23 45 16 198 31 176 17 -9 -5 0 -6 25 -3 128 19 377
-14 436 -57 15 -11 37 -20 50 -20 13 0 55 -21 93 -45 39 -25 84 -52 100 -59
17 -8 45 -28 63 -45 18 -17 38 -31 44 -31 6 0 2 -10 -10 -23 -28 -30 -30 -58
-3 -33 18 17 20 16 26 -3 3 -12 10 -21 14 -21 5 0 22 -13 38 -29 17 -16 40
-34 52 -40 12 -7 21 -17 21 -23 0 -5 16 -33 36 -60 20 -27 34 -51 31 -54 -8
-8 25 -44 34 -38 4 2 10 -5 14 -16 3 -11 12 -26 18 -32 7 -7 17 -26 22 -42 6
-16 16 -31 23 -34 17 -5 15 28 -3 52 -8 11 -15 37 -15 58 0 34 3 38 25 38 14
0 34 -5 44 -12 15 -9 22 -8 35 5 14 13 14 20 5 36 -10 16 -9 22 6 37 18 18 18
18 12 -6 -7 -30 1 -45 30 -54 12 -4 24 -17 26 -29 3 -12 4 -6 2 13 -1 23 -7
34 -15 32 -25 -6 -43 7 -31 22 6 7 8 16 4 20 -4 4 -1 11 6 15 9 6 5 9 -13 9
-15 0 -29 -4 -32 -9 -9 -15 -20 -10 -21 11 -1 15 4 20 23 20 13 0 24 5 24 10
0 6 -7 10 -16 10 -10 0 -14 6 -11 14 4 10 -2 16 -16 19 l-22 4 23 2 c12 0 22
6 22 11 0 10 -12 13 -45 11 l-20 -2 20 16 c19 15 19 17 3 29 -11 8 -15 20 -11
36 4 16 3 21 -5 16 -8 -5 -12 2 -12 19 0 18 -7 28 -24 34 -13 5 -26 17 -30 26
-3 9 -10 14 -14 11 -5 -3 -15 6 -22 19 -7 13 -17 22 -22 19 -4 -3 -12 5 -17
18 -11 28 -80 93 -110 103 -12 3 -21 12 -21 18 0 7 -15 19 -32 26 -18 8 -55
29 -83 46 -105 67 -211 110 -345 140 -41 9 -91 21 -110 26 -54 14 -290 36
-284 27z"/>
<path d="M300 3701 c0 -10 7 -21 15 -25 8 -3 15 -18 15 -33 0 -41 14 -57 45
-51 29 6 67 -24 59 -47 -3 -7 6 -22 20 -33 14 -11 26 -23 26 -26 0 -12 54 -55
69 -56 8 0 11 7 8 20 -3 11 -1 18 4 14 5 -3 9 -1 9 3 0 15 -23 33 -42 33 -11
0 -18 6 -16 13 2 6 -8 29 -21 50 -21 35 -22 39 -7 56 18 20 21 41 6 41 -5 0
-10 7 -10 15 0 16 -25 21 -35 6 -10 -17 -64 -9 -70 10 -4 11 -12 16 -21 12 -7
-3 -14 0 -14 6 0 6 -9 11 -20 11 -13 0 -20 -7 -20 -19z"/>
<path d="M2139 3458 c-21 -7 -28 -17 -33 -50 -4 -23 -12 -48 -18 -55 -15 -19
6 -63 31 -63 10 0 22 -7 25 -16 4 -12 2 -15 -9 -11 -8 4 -21 0 -29 -8 -7 -8
-15 -12 -18 -10 -2 2 -5 -7 -6 -20 -2 -31 18 -33 44 -4 14 16 26 19 50 14 38
-7 57 9 80 63 23 54 26 95 9 136 -14 33 -18 35 -57 34 -24 0 -55 -5 -69 -10z"/>
<path d="M3090 3455 c0 -2 9 -19 19 -36 13 -21 18 -42 14 -60 -4 -21 -1 -28
16 -34 12 -3 21 -14 22 -23 0 -9 3 -28 6 -42 2 -14 5 -44 6 -67 2 -52 7 -56
36 -34 24 18 26 38 16 156 -2 22 -4 52 -4 68 -1 37 -48 58 -68 31 -7 -10 -13
-13 -13 -6 0 14 -31 52 -42 52 -5 0 -8 -2 -8 -5z"/>
<path d="M4715 3440 c-10 -11 -24 -20 -32 -20 -8 0 -34 -14 -59 -30 -24 -17
-50 -30 -56 -29 -41 5 -80 -28 -71 -60 4 -15 11 -20 22 -16 8 3 12 3 8 -1 -4
-5 -26 -9 -48 -10 -45 -2 -54 -7 -44 -23 9 -15 21 -14 39 4 8 8 17 11 21 6 3
-5 -4 -12 -15 -16 -11 -3 -20 -11 -20 -17 0 -5 6 -8 14 -5 8 3 16 1 19 -6 2
-8 9 -6 21 6 10 9 22 17 27 17 6 0 7 5 3 11 -4 7 0 9 13 5 11 -4 33 -1 49 5
16 7 35 11 43 10 7 -1 10 2 7 7 -3 6 5 13 19 16 14 4 25 12 25 18 0 9 -3 9
-12 0 -13 -13 -38 -16 -38 -4 0 9 49 32 68 32 8 0 28 6 45 14 18 8 40 16 50
20 30 10 31 35 3 61 -33 30 -76 32 -101 5z"/>
<path d="M4800 3267 c0 -13 -101 -40 -152 -40 -15 0 -28 -4 -28 -9 0 -7 -44
-35 -130 -84 -18 -10 -70 -61 -70 -68 0 -1 -17 -21 -37 -43 -51 -54 -75 -107
-98 -215 -4 -22 -1 -27 17 -30 18 -2 24 -12 31 -45 15 -77 40 -46 30 36 -5 41
-2 54 16 77 15 19 21 22 21 11 0 -11 6 -15 18 -11 15 5 15 4 -1 -9 -18 -15
-18 -16 2 -26 29 -16 51 -14 45 4 -4 8 -1 15 5 15 6 0 11 6 11 13 0 7 16 28
35 47 30 29 35 31 36 14 0 -17 1 -17 11 4 14 29 42 30 33 1 -6 -18 -5 -19 14
-10 22 12 105 10 118 -2 4 -5 0 -5 -10 -1 -10 3 -17 1 -17 -5 0 -6 4 -11 9
-11 13 0 71 -56 71 -68 0 -14 34 -25 38 -13 2 6 11 11 20 11 8 0 23 7 33 16
23 21 65 11 72 -17 3 -12 10 -18 16 -15 11 7 61 -13 61 -26 0 -4 9 -8 20 -8
16 0 19 4 12 18 -5 9 -7 24 -5 32 3 10 2 11 -4 4 -10 -14 -43 -14 -43 0 0 5
-12 23 -27 38 -20 21 -23 28 -11 28 11 0 18 14 22 45 7 42 9 45 38 45 21 0 31
-6 35 -20 6 -23 43 -27 43 -5 0 8 5 15 10 15 6 0 10 5 10 10 0 6 -7 10 -15 10
-8 0 -15 9 -15 20 0 11 7 20 15 20 8 0 15 7 15 15 0 8 -7 15 -15 15 -9 0 -18
7 -22 16 -3 9 -15 20 -27 24 -14 6 -8 7 22 3 l42 -6 0 42 c0 28 -4 41 -14 41
-7 0 -19 7 -26 15 -7 8 -28 17 -47 21 -19 4 -64 22 -100 40 -66 35 -133 45
-133 21z"/>
<path d="M2300 3251 c0 -6 -7 -11 -15 -11 -12 0 -14 -4 -6 -17 5 -10 15 -18
23 -18 7 -1 30 -9 51 -20 26 -13 36 -24 32 -34 -4 -9 5 -5 19 8 15 14 26 19
26 13 0 -7 -4 -12 -10 -12 -5 0 -15 -10 -21 -22 -6 -13 -8 -20 -4 -16 9 8 40
-20 31 -29 -3 -3 -12 0 -21 7 -13 11 -19 8 -17 -11 1 -3 -6 -6 -14 -6 -10 0
-11 4 -4 11 15 15 12 30 -4 17 -11 -9 -15 -9 -19 1 -4 10 -6 10 -6 0 -1 -14
-34 -29 -82 -37 -26 -5 -28 -3 -17 9 7 8 18 11 23 8 6 -3 4 2 -4 11 -7 9 -19
17 -26 17 -6 0 -12 7 -12 15 0 14 10 19 30 16 4 0 7 4 7 9 0 6 5 10 11 10 5 0
7 -4 4 -10 -3 -5 -1 -10 5 -10 6 0 10 10 8 23 -2 14 -10 22 -22 22 -11 0 -21
6 -24 13 -5 15 -32 16 -32 1 0 -5 -5 -7 -11 -3 -8 5 -8 1 0 -13 10 -19 -1 -43
-20 -43 -4 0 -20 -5 -36 -12 -39 -16 -45 -16 -71 0 -12 8 -31 12 -42 9 -11 -3
-18 -1 -15 3 3 5 1 11 -5 15 -5 3 -10 -3 -10 -14 0 -17 -6 -21 -30 -21 -22 0
-28 -4 -24 -15 7 -17 -11 -21 -21 -5 -4 6 -10 8 -15 5 -5 -3 -13 3 -19 12 -9
17 -10 17 -16 1 -4 -10 -11 -15 -16 -12 -20 12 -8 -16 13 -30 27 -19 33 -14
18 16 -10 21 -10 21 3 5 11 -14 16 -15 20 -5 3 7 3 -1 0 -19 -6 -39 4 -86 17
-78 14 8 0 -28 -15 -40 -6 -5 -15 -27 -19 -48 -4 -21 -13 -40 -20 -43 -10 -4
-4 -15 19 -37 28 -28 31 -37 27 -71 -4 -32 -2 -38 11 -33 9 3 18 1 20 -6 7
-20 -5 -48 -18 -43 -7 2 -18 -1 -24 -7 -8 -8 -11 -5 -11 11 0 12 -4 22 -10 22
-5 0 -10 -9 -10 -21 0 -12 -4 -18 -11 -13 -6 3 -14 1 -18 -5 -11 -17 -59 10
-53 29 3 8 2 12 -2 9 -23 -21 -5 -149 21 -149 7 0 13 -8 13 -17 0 -15 -2 -16
-10 -3 -7 12 -10 12 -16 -4 -7 -18 4 -32 45 -55 12 -8 17 -22 20 -67 1 -7 12
-19 26 -28 19 -13 23 -13 19 -2 -3 9 1 13 12 13 14 -2 35 24 50 61 1 1 11 5
24 7 34 7 65 46 65 84 0 26 -6 36 -28 47 -15 8 -36 12 -46 9 -25 -8 -46 18
-27 34 7 6 20 9 29 5 21 -8 30 11 17 36 -9 18 -8 20 16 20 20 0 24 -3 16 -13
-8 -9 -4 -15 15 -24 21 -10 24 -10 19 3 -4 10 2 14 19 14 14 0 25 -4 25 -9 0
-5 13 -11 30 -13 24 -4 33 1 46 20 15 22 17 23 32 8 14 -13 14 -20 4 -36 -7
-11 -9 -20 -5 -19 21 3 32 -3 38 -21 4 -11 12 -19 18 -18 7 2 27 -8 45 -20 26
-19 31 -28 26 -48 -5 -18 -1 -31 14 -45 12 -10 19 -26 16 -34 -4 -9 0 -15 9
-15 8 0 20 -7 27 -15 7 -8 24 -15 39 -15 20 0 27 5 27 20 0 24 -5 25 -21 3
-11 -15 -15 -12 -33 25 -11 22 -16 42 -12 44 18 7 20 48 3 66 -23 24 -27 43
-8 36 9 -4 22 -1 30 6 10 9 15 9 15 1 0 -6 5 -11 11 -11 5 0 8 4 5 8 -2 4 5 9
16 9 29 3 34 11 21 32 -15 24 6 24 28 0 19 -20 25 -46 7 -32 -9 7 -21 6 -38
-3 -19 -10 -20 -14 -7 -14 12 0 17 -8 17 -27 0 -26 1 -26 16 -7 15 18 15 18 5
-2 -6 -12 -7 -25 -3 -29 4 -4 -3 -2 -16 4 -26 14 -52 1 -52 -26 0 -13 2 -13
17 -2 14 12 16 12 8 0 -6 -11 -4 -13 8 -8 10 3 17 2 17 -3 0 -5 7 -6 17 -3 11
4 14 3 9 -6 -4 -6 -15 -10 -23 -9 -11 2 -16 -5 -17 -24 -1 -14 3 -24 8 -21 5
4 7 0 4 -8 -7 -19 18 -44 26 -26 3 7 3 1 -1 -13 -3 -14 -6 -34 -5 -45 1 -20
-24 -55 -40 -55 -5 0 -2 7 6 16 18 18 21 28 5 19 -6 -4 -19 2 -30 14 -11 12
-25 18 -31 15 -7 -5 -3 -14 13 -27 l24 -19 -23 -19 c-22 -17 -25 -17 -48 -3
-24 16 -35 32 -12 18 7 -4 8 -3 4 5 -6 8 -11 9 -21 1 -9 -8 -19 0 -38 29 -16
23 -23 43 -17 46 18 11 11 23 -10 18 -11 -3 -25 -14 -31 -24 -5 -11 -19 -19
-29 -19 -11 0 -20 -7 -20 -15 0 -8 -4 -15 -8 -15 -18 0 -33 -50 -22 -71 6 -11
8 -25 3 -32 -4 -6 -6 -24 -4 -39 1 -16 -2 -28 -8 -28 -6 0 -11 -16 -11 -36 0
-19 4 -33 9 -29 6 3 25 -11 43 -31 18 -19 49 -51 68 -70 19 -20 33 -43 32 -52
-3 -13 -1 -14 12 -3 11 9 16 10 16 2 0 -9 5 -9 21 -1 11 7 18 18 15 25 -3 9 0
12 10 8 7 -3 14 -9 14 -13 0 -12 63 -31 72 -22 4 4 -20 23 -54 41 -33 19 -58
29 -54 23 4 -7 2 -12 -3 -12 -6 0 -11 6 -11 14 0 7 -10 28 -23 47 -26 39 -24
65 5 75 16 5 18 8 7 15 -18 11 -32 11 -25 0 4 -5 -3 -7 -15 -4 -28 8 -34 28
-21 69 8 29 8 36 -4 41 -12 4 -12 7 2 18 14 9 23 9 46 -2 15 -8 28 -19 28 -24
0 -5 11 -11 25 -15 14 -3 25 -12 25 -19 0 -8 8 -13 18 -13 9 0 36 -4 58 -9 23
-6 66 -10 95 -9 l54 1 0 35 c0 31 -3 35 -25 35 -25 0 -76 24 -52 25 6 0 13 10
13 23 1 15 3 17 6 6 5 -19 50 -31 59 -17 3 5 15 13 26 17 12 4 31 25 43 47 13
21 28 38 34 37 13 -3 15 10 4 21 -5 4 -8 35 -8 69 0 39 -4 62 -12 64 -7 3 -13
-3 -13 -12 0 -9 -4 -13 -10 -10 -18 11 -11 24 21 40 21 11 29 21 25 32 -4 10
-2 13 7 10 8 -3 20 -1 28 4 10 6 10 9 2 9 -7 0 -16 0 -20 1 -5 0 -18 10 -30
21 -17 16 -23 18 -23 7 0 -12 -2 -11 -10 1 -11 18 -13 77 -2 83 4 3 16 1 27
-3 18 -7 19 -8 3 -15 -10 -4 -16 -11 -13 -15 5 -8 55 10 55 20 0 4 -16 12 -35
19 -19 7 -35 17 -35 22 0 5 -7 9 -15 9 -8 0 -21 12 -29 28 -8 15 -15 21 -16
14 0 -14 -40 -33 -53 -25 -4 3 -1 16 7 29 9 13 16 28 16 34 0 6 7 18 15 26 13
13 19 12 53 -5 44 -22 66 -22 84 1 7 9 20 18 28 21 8 3 -17 6 -57 6 -39 1 -74
5 -77 9 -3 5 9 19 26 32 22 16 32 19 38 10 4 -6 9 -10 11 -9 10 8 89 -32 83
-42 -5 -8 12 -9 57 -4 35 5 70 8 77 8 6 0 12 3 12 7 0 3 10 6 21 7 26 2 75 47
82 74 7 26 -10 24 -50 -7 -18 -14 -33 -20 -33 -14 0 20 -29 41 -65 47 -23 4
-35 2 -35 -6 0 -15 -45 -61 -59 -61 -6 0 -14 18 -17 40 -4 22 -11 40 -17 40
-6 0 -7 -3 -4 -6 4 -4 -10 -16 -30 -26 -34 -18 -39 -19 -69 -5 -27 13 -35 13
-57 2 -28 -14 -44 -15 -64 -2 -7 5 -18 5 -25 1 -7 -5 -8 -3 -3 6 6 10 4 12 -8
7 -22 -8 -21 -5 2 22 12 13 22 18 26 12 7 -13 66 -5 113 14 21 9 32 21 32 34
0 18 -7 21 -42 22 -24 1 -52 0 -63 -1 -54 -8 -100 -4 -98 8 2 6 -2 12 -7 12
-5 0 -10 7 -10 15 0 19 26 20 34 0 11 -30 135 2 136 35 1 12 3 12 11 -2 12
-21 39 -12 39 13 0 13 -7 19 -21 19 -14 0 -18 4 -12 13 4 6 -7 1 -24 -13 -17
-14 -28 -29 -25 -34 3 -5 -2 -6 -12 -3 -10 4 -15 3 -11 -3 3 -6 -1 -10 -9 -10
-9 0 -16 6 -16 14 0 9 -7 12 -20 9 -11 -3 -17 -9 -14 -14 3 -5 -2 -6 -11 -3
-12 5 -13 10 -4 20 6 8 15 11 20 8 5 -3 9 -1 9 4 0 14 -30 24 -44 15 -10 -7
-29 -9 -63 -4 -7 0 -10 8 -7 16 4 10 0 15 -14 15 -12 0 -23 4 -27 9 -3 6 -14
8 -25 6 -11 -2 -20 0 -20 4 0 4 -10 7 -22 6 -13 -1 -29 2 -35 8 -9 6 -13 6
-13 -2z m-187 -306 c2 -5 3 -38 2 -72 0 -35 2 -63 5 -63 3 0 4 -16 2 -36 -4
-33 -7 -36 -33 -32 -36 6 -37 1 -3 -12 14 -6 22 -15 19 -20 -4 -7 3 -9 22 -5
23 4 24 4 8 -4 -19 -9 -19 -10 -1 -10 11 -1 17 -4 14 -7 -3 -3 -28 1 -54 9
-39 11 -49 19 -49 36 0 11 -5 21 -10 20 -6 0 -9 -8 -7 -17 3 -14 1 -13 -12 3
l-16 20 6 -20 c6 -16 4 -18 -6 -8 -11 10 -11 15 0 27 7 9 16 14 20 11 4 -3 13
2 19 9 16 20 0 78 -25 91 -22 11 -26 37 -13 72 8 21 14 23 59 21 27 -2 51 -7
53 -13z"/>
<path d="M1520 2716 c0 -9 -7 -25 -16 -33 -11 -11 -14 -26 -10 -46 3 -16 6
-40 6 -54 0 -14 4 -21 10 -18 6 3 10 -3 10 -14 0 -11 -4 -22 -9 -25 -5 -4 -5
-21 0 -43 5 -21 11 -45 13 -53 14 -55 29 -105 39 -127 10 -22 12 -23 18 -6 4
10 8 29 8 43 -1 14 -3 19 -6 12 -2 -6 -9 -9 -14 -6 -6 4 -6 11 1 19 8 10 7 25
-4 60 -19 55 -19 56 -3 53 7 -2 11 5 10 17 -18 152 -29 212 -40 225 -11 12
-13 12 -13 -4z"/>
<path d="M3365 2690 c-10 -11 -23 -16 -29 -13 -22 14 -34 11 -46 -13 -11 -19
-11 -26 0 -39 10 -12 10 -15 -3 -15 -9 0 -19 -9 -22 -20 -3 -11 -13 -20 -21
-20 -11 0 -13 -6 -9 -22 4 -13 8 -27 9 -33 0 -5 9 -13 19 -17 27 -11 33 -39
12 -54 -13 -10 -16 -21 -11 -48 9 -45 18 -50 60 -35 32 12 33 14 33 65 -1 35
-4 51 -11 47 -7 -5 -7 -2 0 8 6 8 10 24 9 36 -1 12 3 21 9 20 6 -1 11 13 11
31 1 17 -3 32 -8 32 -5 0 -7 7 -3 15 3 9 0 15 -8 15 -7 0 -13 7 -13 15 0 10 4
12 10 6 16 -16 57 9 57 36 0 28 -21 30 -45 3z"/>
<path d="M2970 2480 c-27 -27 -50 -56 -50 -64 0 -12 -18 -30 -107 -107 -17
-15 -45 -30 -63 -34 -19 -4 -28 -10 -21 -14 6 -4 9 -15 5 -24 -4 -13 -1 -17
15 -17 12 0 21 6 21 16 0 8 5 12 10 9 6 -3 10 -3 10 2 0 18 73 56 110 58 21 1
46 9 55 18 9 9 13 17 9 17 -21 0 23 30 49 33 29 4 30 5 10 12 -30 10 -29 19 4
50 15 14 22 25 15 25 -10 0 -12 8 -7 29 10 48 -11 45 -65 -9z"/>
<path d="M3070 2260 c0 -11 6 -20 13 -20 17 0 35 -38 31 -65 -2 -11 2 -23 9
-27 7 -5 2 -8 -13 -9 -14 0 -19 -3 -12 -6 6 -2 10 -9 6 -14 -3 -5 0 -9 6 -9 6
0 9 -4 6 -9 -3 -5 2 -8 12 -7 9 0 16 -5 15 -11 -2 -10 3 -10 22 -1 13 6 22 15
19 19 -3 5 -1 9 5 9 15 0 42 45 45 75 4 30 -37 65 -77 65 -13 0 -30 7 -37 15
-18 22 -50 19 -50 -5z"/>
<path d="M2818 2161 c-40 -27 -84 -52 -98 -56 -44 -12 -120 -48 -120 -56 0
-13 79 -30 113 -25 18 3 56 13 86 21 29 9 60 13 70 9 9 -4 20 -6 25 -5 5 1 6
-4 4 -11 -3 -7 6 -24 20 -38 14 -14 20 -17 13 -7 -15 19 -1 23 17 5 7 -7 12
-8 12 -2 0 6 11 16 25 22 32 15 38 15 30 2 -3 -5 1 -10 10 -10 11 0 14 -7 10
-27 -4 -19 -3 -22 3 -10 4 10 12 19 17 20 6 1 9 6 7 10 -1 4 2 16 8 27 8 16 6
18 -15 15 -22 -2 -23 0 -13 14 7 9 14 18 15 20 1 2 11 -2 20 -10 16 -12 17
-12 6 2 -9 12 -10 18 -1 27 8 8 7 13 -5 17 -9 3 -24 7 -33 10 -9 3 -12 10 -8
17 5 8 2 9 -9 5 -13 -5 -17 -1 -17 18 0 25 -12 39 -24 28 -12 -12 -46 -10 -57
4 -18 21 -33 16 -111 -36z"/>
<path d="M5105 2091 c-3 -6 -27 -13 -53 -17 -47 -6 -60 -11 -162 -55 -59 -25
-71 -35 -64 -54 3 -6 -2 -25 -11 -41 -34 -65 -10 -104 64 -104 26 0 51 3 55 7
14 15 53 12 88 -6 25 -12 33 -22 27 -28 -7 -7 2 -16 26 -27 24 -12 35 -23 33
-34 -4 -21 -49 -28 -78 -12 -25 13 -25 7 -2 -32 13 -23 14 -32 5 -35 -21 -8
-15 -29 20 -63 61 -60 67 -59 67 10 l0 62 -29 -7 c-17 -3 -32 -2 -36 4 -4 7 4
11 19 11 15 0 30 8 36 20 9 18 14 410 5 410 -2 0 -6 -4 -10 -9z"/>
<path d="M2479 2038 c-1 -2 -2 -20 -3 -40 -3 -36 16 -59 29 -37 4 5 10 7 15 4
5 -3 12 1 17 9 5 9 13 12 21 7 10 -6 8 -13 -7 -32 -11 -13 -20 -18 -21 -11 0
6 -4 12 -9 12 -5 0 -8 -8 -7 -17 2 -11 17 -22 37 -28 25 -7 35 -16 37 -35 2
-14 12 -31 23 -39 10 -7 19 -21 19 -30 0 -9 3 -12 8 -6 4 6 16 12 27 13 31 6
31 12 -1 13 -16 0 -22 3 -14 6 8 3 23 15 32 27 12 13 21 17 25 10 13 -17 54 9
42 27 -6 10 -9 10 -9 2 0 -7 -9 -13 -19 -13 -16 0 -18 6 -16 43 2 23 1 36 -1
30 -4 -10 -10 -8 -22 4 -16 15 -17 15 -20 0 -3 -16 -16 -22 -37 -17 -5 1 -19
3 -29 4 -11 0 -21 8 -23 16 -4 13 -3 13 6 0 9 -13 12 -13 23 -1 7 8 8 11 2 8
-6 -4 -27 11 -47 33 -20 22 -45 40 -56 40 -12 0 -21 -1 -22 -2z"/>
<path d="M4206 830 c4 -14 7 -25 8 -26 33 -22 48 -35 36 -33 -8 1 -24 1 -34 0
-19 -1 -19 -2 -1 -21 13 -15 21 -17 26 -9 5 9 15 9 39 -1 18 -7 50 -14 72 -15
22 -1 43 -7 47 -13 4 -7 19 -8 44 -2 31 7 37 6 33 -6 -3 -8 -1 -14 4 -14 6 0
10 5 10 11 0 8 4 8 14 0 11 -9 15 -8 20 4 3 10 -11 31 -39 60 -25 24 -45 49
-45 55 0 5 -9 10 -21 10 -15 0 -19 -5 -15 -16 4 -10 2 -13 -6 -8 -6 4 -27 8
-47 10 -20 1 -30 0 -23 -3 6 -2 12 -9 12 -14 0 -6 -5 -7 -12 -3 -7 4 -8 3 -4
-4 4 -7 14 -12 22 -12 8 0 14 -4 14 -10 0 -13 -3 -13 -34 1 -14 7 -23 15 -20
20 2 4 -6 17 -18 29 -16 15 -31 20 -50 16 -16 -3 -29 0 -32 7 -3 7 -3 1 0 -13z"/>
</g>
</svg>
